<svg xmlns="http://www.w3.org/2000/svg" xmlns:xlink="http://www.w3.org/1999/xlink" width="500" zoomAndPan="magnify" viewBox="0 0 375 374.999991" height="500" preserveAspectRatio="xMidYMid meet" version="1.0"><defs><g/><clipPath id="e4705a7ed4"><path d="M 30.828125 188.480469 L 115.53125 188.480469 L 115.53125 269.230469 L 30.828125 269.230469 Z M 30.828125 188.480469 " clip-rule="nonzero"/></clipPath><clipPath id="5e22fb7291"><path d="M 41.382812 197.566406 L 104.976562 197.566406 L 104.976562 260.144531 L 41.382812 260.144531 Z M 41.382812 197.566406 " clip-rule="nonzero"/></clipPath><clipPath id="8c7d77d0bb"><path d="M 45.328125 201.003906 L 100.800781 201.003906 L 100.800781 256.476562 L 45.328125 256.476562 Z M 45.328125 201.003906 " clip-rule="nonzero"/></clipPath></defs><g clip-path="url(#e4705a7ed4)"><path fill="#ffffff" d="M 30.828125 188.480469 L 115.796875 188.480469 L 115.796875 269.480469 L 30.828125 269.480469 Z M 30.828125 188.480469 " fill-opacity="1" fill-rule="nonzero"/></g><path stroke-linecap="butt" transform="matrix(0.451754, 0.430646, -0.430073, 0.451153, 33.191084, 186.00132)" fill="none" stroke-linejoin="miter" d="M 0.0001977 5.503605 L 187.756064 5.501699 " stroke="#000000" stroke-width="11" stroke-opacity="1" stroke-miterlimit="4"/><g clip-path="url(#5e22fb7291)"><path fill="#000000" d="M 41.382812 197.566406 L 104.914062 197.566406 L 104.914062 260.300781 L 41.382812 260.300781 Z M 41.382812 197.566406 " fill-opacity="1" fill-rule="nonzero"/></g><g clip-path="url(#8c7d77d0bb)"><path fill="#ffffff" d="M 73.0625 201.003906 C 57.746094 201.003906 45.328125 213.421875 45.328125 228.738281 C 45.328125 244.058594 57.746094 256.476562 73.0625 256.476562 C 88.382812 256.476562 100.800781 244.058594 100.800781 228.738281 C 100.800781 213.421875 88.382812 201.003906 73.0625 201.003906 Z M 83.867188 223.300781 C 84.023438 223.480469 84.257812 223.5625 84.570312 223.542969 C 85.339844 223.496094 85.925781 223.257812 86.265625 222.847656 C 86.410156 222.675781 86.503906 222.480469 86.550781 222.269531 C 86.707031 222.648438 86.875 222.863281 87.179688 222.863281 C 87.28125 222.863281 87.539062 222.863281 88.039062 222.316406 C 88.265625 222.882812 88.667969 223.507812 89.339844 223.542969 C 89.859375 223.574219 90.492188 223.566406 90.90625 223.558594 L 90.90625 224.742188 C 89.753906 224.855469 88.488281 224.886719 88.203125 224.746094 C 87.375 224.328125 86.46875 224.878906 86.464844 224.882812 C 86.054688 225.082031 85.066406 225.445312 84.621094 225.269531 C 84.539062 225.238281 84.492188 225.191406 84.460938 225.113281 C 84.378906 224.898438 84.308594 224.679688 84.238281 224.476562 C 84.007812 223.765625 83.722656 222.902344 82.925781 222.902344 C 82.824219 222.902344 82.71875 222.914062 82.601562 222.945312 C 82.382812 223 81.960938 223.042969 81.511719 223.089844 C 81.175781 223.125 80.859375 223.15625 80.566406 223.195312 C 80.710938 223.105469 80.863281 222.996094 81.015625 222.855469 C 82.023438 221.964844 83.078125 221.363281 83.566406 221.398438 C 83.664062 221.402344 83.703125 221.433594 83.730469 221.464844 C 83.875 221.632812 83.835938 221.914062 83.761719 222.289062 C 83.691406 222.628906 83.617188 223.015625 83.867188 223.300781 Z M 84.03125 215.445312 C 84.335938 215.464844 84.628906 215.421875 84.878906 215.246094 C 85.210938 215.011719 85.390625 214.613281 85.425781 214.027344 C 85.5 212.839844 85.667969 212.15625 85.789062 211.8125 C 85.886719 212.160156 85.980469 212.699219 86.035156 213.21875 C 86.058594 213.445312 86.238281 213.625 86.460938 213.609375 C 86.460938 213.609375 86.496094 213.613281 86.511719 213.632812 C 86.539062 213.664062 86.5625 213.769531 86.539062 213.945312 C 86.441406 214.730469 85.78125 216.175781 85.097656 216.175781 C 84.789062 216.175781 84.507812 215.898438 84.234375 215.636719 C 84.167969 215.570312 84.101562 215.503906 84.03125 215.445312 Z M 71.414062 202.792969 C 71.582031 202.785156 71.75 202.773438 71.917969 202.765625 C 71.542969 202.988281 71.183594 203.21875 70.867188 203.445312 C 71.09375 203.195312 71.273438 202.984375 71.414062 202.792969 Z M 98.972656 226.597656 C 98.992188 226.867188 99.019531 227.140625 99.035156 227.414062 C 98.984375 227.386719 98.929688 227.363281 98.871094 227.34375 C 98.636719 227.261719 98.332031 227.171875 98.003906 227.078125 C 97.5625 226.953125 96.742188 226.71875 96.339844 226.511719 C 96.851562 226.4375 97.925781 226.464844 98.972656 226.597656 Z M 94.519531 231.21875 C 96.847656 230.886719 98.183594 230.410156 98.488281 229.796875 C 98.558594 229.660156 98.714844 229.46875 98.871094 229.28125 C 98.933594 229.207031 98.996094 229.128906 99.058594 229.050781 C 98.890625 243.246094 87.296875 254.742188 73.0625 254.742188 C 59.101562 254.742188 47.679688 243.683594 47.089844 229.863281 C 47.449219 229.949219 47.847656 229.914062 48.265625 229.878906 C 48.890625 229.828125 49.597656 229.769531 50.4375 230.019531 C 52.054688 230.496094 52.105469 230.726562 52.222656 231.285156 C 52.300781 231.636719 52.40625 232.117188 52.796875 232.742188 C 53.140625 233.296875 53.652344 233.644531 54.277344 233.753906 C 54.421875 233.777344 54.566406 233.789062 54.714844 233.789062 C 55.839844 233.789062 56.949219 233.121094 57.28125 232.851562 C 57.574219 232.621094 57.558594 232.371094 57.519531 232.246094 C 57.410156 231.84375 56.96875 231.785156 56.300781 231.699219 C 56.0625 231.667969 55.785156 231.632812 55.5625 231.574219 C 55.761719 231.390625 55.988281 231.140625 55.988281 230.789062 C 55.988281 230.320312 55.644531 230.097656 55.371094 229.917969 C 55.144531 229.773438 54.886719 229.605469 54.675781 229.269531 C 54.519531 229.023438 54.546875 228.964844 54.660156 228.730469 C 54.78125 228.484375 54.960938 228.109375 54.835938 227.53125 C 54.761719 227.207031 54.5625 227.082031 54.449219 227.035156 C 54.082031 226.886719 53.726562 227.117188 53.316406 227.386719 C 53.023438 227.578125 52.578125 227.863281 52.367188 227.800781 C 52.246094 227.761719 52.152344 227.574219 52.109375 227.460938 C 51.972656 227.136719 52.050781 226.957031 52.121094 226.851562 C 52.535156 226.238281 54.15625 225.980469 54.929688 225.980469 C 55.09375 225.980469 55.445312 226.273438 55.703125 226.488281 C 56.226562 226.925781 56.875 227.464844 57.578125 227.203125 C 58.132812 226.996094 58.535156 226.140625 59.261719 224.523438 C 59.808594 223.300781 60.429688 221.914062 61.0625 221.28125 C 61.867188 220.476562 62.695312 220.535156 63.496094 220.589844 C 63.882812 220.617188 64.25 220.640625 64.597656 220.566406 C 64.886719 220.5 65.242188 220.386719 65.40625 220.0625 C 65.605469 219.675781 65.433594 219.273438 65.175781 218.667969 C 65.132812 218.5625 65.082031 218.449219 65.03125 218.324219 C 65.21875 218.347656 65.433594 218.339844 65.667969 218.269531 C 65.699219 218.261719 65.722656 218.257812 65.722656 218.253906 C 65.785156 218.308594 65.878906 218.550781 65.9375 218.699219 C 66.144531 219.234375 66.484375 220.132812 67.652344 220.054688 C 68.101562 220.023438 68.425781 219.871094 68.613281 219.59375 C 68.964844 219.089844 68.753906 218.386719 68.484375 217.503906 C 68.316406 216.933594 68.121094 216.289062 68.054688 215.625 C 67.972656 214.824219 67.726562 214.3125 67.304688 214.058594 C 66.738281 213.722656 66.105469 213.984375 65.726562 214.140625 C 65.722656 214.140625 65.722656 214.140625 65.722656 214.140625 C 65.65625 214.003906 65.574219 213.792969 65.511719 213.621094 C 65.289062 213.015625 65.03125 212.328125 64.554688 211.96875 C 64.378906 211.835938 64.171875 211.785156 63.96875 211.828125 C 63.503906 211.929688 63.210938 212.464844 62.867188 213.085938 C 62.691406 213.410156 62.320312 214.082031 62.140625 214.117188 C 61.296875 213.835938 60.792969 214.617188 60.535156 215.058594 C 60.40625 214.890625 60.3125 214.671875 60.253906 213.964844 C 60.210938 213.476562 61.941406 212.339844 62.871094 211.730469 C 63.894531 211.058594 64.777344 210.476562 65.082031 209.96875 C 65.207031 209.761719 65.4375 209.378906 65.175781 209.070312 C 64.921875 208.765625 64.566406 208.90625 64.152344 209.070312 C 63.851562 209.1875 63.414062 209.359375 63.09375 209.328125 C 63.148438 209.160156 63.320312 208.878906 63.386719 208.773438 C 63.503906 208.582031 63.703125 208.261719 63.417969 208.007812 C 63.132812 207.75 62.820312 207.988281 62.675781 208.105469 C 61.976562 208.652344 60.199219 209.3125 59.613281 209.3125 C 59.507812 209.3125 59.4375 209.308594 59.398438 209.304688 C 59.378906 209.199219 59.363281 208.996094 59.347656 208.800781 C 59.339844 208.671875 59.328125 208.523438 59.316406 208.359375 C 59.285156 207.988281 59.117188 207.671875 58.828125 207.445312 C 58.71875 207.359375 58.59375 207.289062 58.464844 207.234375 C 59.3125 206.65625 60.199219 206.132812 61.117188 205.65625 C 61.441406 205.976562 62.269531 206.453125 64.621094 206.945312 C 65.253906 207.082031 65.6875 207.28125 66.035156 207.441406 C 66.355469 207.589844 66.636719 207.699219 66.898438 207.699219 C 67.289062 207.699219 67.640625 207.453125 68.011719 206.71875 C 68.238281 206.261719 68.867188 205.558594 69.519531 204.871094 C 69.472656 205.007812 69.460938 205.140625 69.488281 205.265625 C 69.609375 205.820312 69.859375 206.308594 70.058594 206.699219 C 70.136719 206.851562 70.234375 207.042969 70.28125 207.167969 C 70.230469 207.207031 70.160156 207.246094 70.105469 207.28125 C 69.746094 207.507812 69.253906 207.8125 69.167969 208.371094 C 69.109375 208.734375 69.246094 209.117188 69.570312 209.503906 C 70.136719 210.175781 69.984375 210.664062 69.789062 211.285156 C 69.6875 211.609375 69.582031 211.941406 69.582031 212.3125 C 69.582031 212.496094 69.554688 212.789062 69.523438 213.101562 C 69.386719 214.589844 69.339844 215.675781 69.945312 216.078125 C 70.050781 216.148438 70.195312 216.210938 70.382812 216.210938 C 70.542969 216.210938 70.730469 216.167969 70.949219 216.050781 C 71.652344 215.671875 71.863281 215.277344 72.105469 214.816406 C 72.40625 214.25 72.816406 213.472656 74.460938 212.054688 C 77.378906 209.53125 79.597656 204.78125 79.699219 203.597656 C 83.804688 204.683594 87.515625 206.746094 90.5625 209.523438 C 90.203125 210.164062 89.722656 210.742188 89.335938 210.671875 C 89.195312 210.644531 89.1875 210.644531 89.171875 210.265625 C 89.144531 209.710938 89.101562 208.78125 87.574219 208.480469 C 85.394531 208.054688 82.296875 209.039062 81.570312 210.957031 C 81.074219 212.277344 81.023438 213.570312 81.445312 214.328125 C 81.664062 214.722656 81.996094 214.972656 82.414062 215.058594 C 82.585938 215.09375 82.777344 215.148438 82.976562 215.207031 C 82.855469 215.28125 82.746094 215.394531 82.648438 215.546875 C 81.773438 216.949219 80.730469 218.039062 80.417969 218.046875 C 79.871094 218.046875 79.4375 218.527344 79.253906 219.335938 C 79.179688 219.660156 79.132812 220.039062 79.230469 220.316406 C 79.222656 220.324219 79.21875 220.328125 79.214844 220.332031 C 78.878906 220.164062 78.351562 219.964844 77.925781 220.128906 C 77.660156 220.234375 77.472656 220.457031 77.398438 220.765625 C 77.207031 221.523438 77.378906 222.5625 77.785156 223.082031 C 78.046875 223.414062 78.34375 223.488281 78.542969 223.488281 C 78.660156 223.488281 78.777344 223.5 78.894531 223.511719 C 78.9375 223.515625 78.984375 223.519531 79.03125 223.527344 C 78.671875 223.660156 78.414062 223.839844 78.273438 224.085938 L 78.085938 224.417969 C 77.75 225.015625 77.402344 225.636719 77.027344 225.9375 L 76.945312 226 C 76.429688 226.410156 75.644531 227.035156 75.3125 228.464844 C 74.960938 229.996094 75.730469 233.289062 77.714844 233.777344 C 79.007812 234.089844 80.589844 233.953125 81.746094 233.851562 C 82.140625 233.820312 82.476562 233.789062 82.710938 233.789062 C 83.171875 233.789062 83.402344 234.027344 83.523438 235.359375 C 83.585938 236.058594 83.875 236.492188 84.132812 236.875 C 84.351562 237.203125 84.523438 237.460938 84.5625 237.859375 C 84.605469 238.285156 84.570312 238.578125 84.527344 238.945312 C 84.46875 239.417969 84.398438 240.003906 84.457031 241.0625 C 84.480469 241.492188 84.472656 241.960938 84.460938 242.457031 C 84.421875 244.089844 84.382812 245.941406 85.757812 246.53125 C 85.964844 246.617188 86.136719 246.710938 86.292969 246.789062 C 86.691406 246.992188 87.011719 247.121094 87.328125 247.121094 C 88.011719 247.121094 88.671875 246.511719 90.019531 244.730469 C 92.429688 241.554688 92.925781 240.015625 93.320312 238.332031 C 93.730469 236.597656 94.976562 235.035156 95.964844 234.320312 C 96.941406 233.609375 97.640625 232.492188 97.457031 231.929688 C 97.386719 231.707031 97.1875 231.5625 96.957031 231.5625 C 96.910156 231.5625 96.816406 231.570312 96.683594 231.585938 C 95.992188 231.667969 93.894531 231.914062 93.292969 230.609375 C 93.25 230.511719 93.203125 230.414062 93.15625 230.316406 C 93.585938 230.910156 94.03125 231.289062 94.519531 231.21875 Z M 94.519531 231.21875 " fill-opacity="1" fill-rule="nonzero"/></g><path fill="#ffffff" d="M 70.554688 235.839844 C 69.421875 235.507812 68.265625 234.667969 67.246094 233.925781 C 66.75 233.566406 66.285156 233.226562 65.867188 232.980469 C 64.691406 232.289062 62.808594 231.960938 62.367188 231.890625 C 62.046875 231.691406 61.746094 231.46875 61.457031 231.25 C 60.800781 230.765625 60.285156 230.382812 59.769531 230.382812 C 59.523438 230.382812 59.179688 230.472656 58.929688 230.898438 C 58.441406 231.714844 57.925781 232.527344 56.960938 233.449219 C 56.75 233.652344 56.445312 233.851562 56.152344 234.039062 C 55.492188 234.472656 54.804688 234.917969 54.730469 235.65625 C 54.679688 236.144531 54.917969 236.648438 55.457031 237.1875 C 56.050781 237.78125 56.753906 238.160156 57.433594 238.523438 C 58.761719 239.238281 59.910156 239.855469 60.226562 241.933594 C 60.8125 245.820312 63.3125 249.542969 64.359375 250.964844 C 65.128906 252.003906 65.945312 252.578125 66.664062 252.578125 C 66.96875 252.578125 67.246094 252.46875 67.441406 252.277344 C 67.636719 252.085938 67.742188 251.824219 67.742188 251.539062 C 67.742188 251.328125 67.761719 251.109375 67.785156 250.878906 C 67.832031 250.328125 67.890625 249.703125 67.734375 248.863281 C 67.53125 247.726562 67.539062 247.183594 67.773438 246.792969 C 67.816406 246.722656 67.90625 246.699219 68.09375 246.65625 C 68.300781 246.613281 68.582031 246.550781 68.742188 246.277344 C 68.851562 246.09375 68.863281 245.867188 68.777344 245.589844 C 68.726562 245.425781 68.664062 245.269531 68.601562 245.117188 C 68.402344 244.625 68.300781 244.375 68.691406 243.921875 C 69.433594 243.054688 70.636719 241.101562 70.859375 239.648438 C 70.914062 239.289062 71.09375 238.890625 71.269531 238.507812 C 71.5625 237.863281 71.863281 237.199219 71.59375 236.609375 C 71.429688 236.25 71.085938 235.996094 70.554688 235.839844 Z M 70.554688 235.839844 " fill-opacity="1" fill-rule="nonzero"/><path fill="#ffffff" d="M 68.3125 207.769531 C 68.199219 207.566406 67.949219 207.488281 67.742188 207.589844 C 67.695312 207.613281 66.667969 208.140625 66.667969 209.226562 C 66.667969 209.445312 66.355469 209.835938 66.125 210.125 C 65.722656 210.628906 65.109375 211.390625 65.785156 211.949219 C 65.949219 212.085938 66.175781 212.160156 66.4375 212.160156 C 67.078125 212.160156 67.988281 211.71875 68.480469 210.878906 C 68.847656 210.253906 69.117188 209.210938 68.3125 207.769531 Z M 68.3125 207.769531 " fill-opacity="1" fill-rule="nonzero"/><path fill="#ffffff" d="M 76.554688 215.332031 C 78.253906 214.480469 78.050781 211.804688 78.039062 211.691406 C 78.03125 211.5625 77.964844 211.449219 77.859375 211.375 C 77.757812 211.300781 77.628906 211.277344 77.503906 211.304688 C 77.125 211.398438 75.207031 211.917969 74.722656 212.878906 C 74.441406 213.441406 74.375 214.382812 74.75 214.988281 C 74.972656 215.351562 75.324219 215.550781 75.742188 215.550781 C 75.992188 215.550781 76.265625 215.476562 76.554688 215.332031 Z M 76.554688 215.332031 " fill-opacity="1" fill-rule="nonzero"/><g fill="#ffffff" fill-opacity="1"><g transform="translate(123.786501, 238.800599)"><g><path d="M 5.4375 0 L 20.285156 0 L 20.285156 -19.476562 L 26.753906 -19.476562 L 36.601562 0 L 53.800781 0 L 40.277344 -24.988281 C 41.820312 -26.828125 43.21875 -29.253906 44.394531 -32.265625 L 52.039062 -51.449219 L 35.941406 -51.449219 L 31.3125 -38.585938 C 29.765625 -34.105469 28.078125 -33 22.785156 -33 L 20.285156 -33 L 20.285156 -51.449219 L 5.4375 -51.449219 Z M 5.4375 0 "/></g></g></g><g fill="#ffffff" fill-opacity="1"><g transform="translate(183.909819, 238.800599)"><g><path d="M 5.4375 0 L 20.140625 0 L 20.140625 -26.09375 L 30.0625 -12.199219 L 39.691406 -12.199219 L 49.539062 -26.019531 L 49.539062 0 L 64.238281 0 L 64.238281 -51.449219 L 52.183594 -51.449219 L 34.839844 -26.972656 L 17.566406 -51.449219 L 5.4375 -51.449219 Z M 5.4375 0 "/></g></g></g><g fill="#ffffff" fill-opacity="1"><g transform="translate(258.145142, 238.800599)"><g><path d="M 5.4375 0 L 41.527344 0 L 41.527344 -12.128906 L 20.140625 -12.128906 L 20.140625 -20.066406 L 38.734375 -20.066406 L 38.734375 -31.972656 L 20.140625 -31.972656 L 20.140625 -39.46875 L 40.71875 -39.46875 L 40.71875 -51.449219 L 5.4375 -51.449219 Z M 5.4375 0 "/></g></g></g><g fill="#ffffff" fill-opacity="1"><g transform="translate(307.53745, 238.800599)"><g><path d="M 0.367188 0 L 16.097656 0 L 18.890625 -7.277344 L 36.457031 -7.277344 L 39.25 0 L 55.050781 0 L 35.058594 -51.449219 L 20.359375 -51.449219 Z M 21.976562 -18.15625 L 27.710938 -34.105469 L 33.441406 -18.15625 Z M 21.976562 -18.15625 "/></g></g></g><g fill="#ffffff" fill-opacity="1"><g transform="translate(129.16546, 269.091692)"><g><path d="M 4.734375 0 L 1.875 0 L 1.875 -14.4375 L 4.734375 -14.4375 Z M 4.734375 0 "/></g></g></g><g fill="#ffffff" fill-opacity="1"><g transform="translate(135.777563, 269.091692)"><g><path d="M 4.734375 -6.34375 L 4.734375 -2.390625 L 11.625 -2.390625 L 11.625 0 L 1.875 0 L 1.875 -14.4375 L 11.46875 -14.4375 L 11.46875 -12.046875 L 4.734375 -12.046875 L 4.734375 -8.671875 L 10.609375 -8.671875 L 10.609375 -6.34375 Z M 4.734375 -6.34375 "/></g></g></g><g fill="#ffffff" fill-opacity="1"><g transform="translate(148.182661, 269.091692)"><g><path d="M 4.734375 -6.34375 L 4.734375 -2.390625 L 11.625 -2.390625 L 11.625 0 L 1.875 0 L 1.875 -14.4375 L 11.46875 -14.4375 L 11.46875 -12.046875 L 4.734375 -12.046875 L 4.734375 -8.671875 L 10.609375 -8.671875 L 10.609375 -6.34375 Z M 4.734375 -6.34375 "/></g></g></g><g fill="#ffffff" fill-opacity="1"><g transform="translate(160.58776, 269.091692)"><g><path d="M 4.734375 -6.34375 L 4.734375 -2.390625 L 11.625 -2.390625 L 11.625 0 L 1.875 0 L 1.875 -14.4375 L 11.46875 -14.4375 L 11.46875 -12.046875 L 4.734375 -12.046875 L 4.734375 -8.671875 L 10.609375 -8.671875 L 10.609375 -6.34375 Z M 4.734375 -6.34375 "/></g></g></g><g fill="#ffffff" fill-opacity="1"><g transform="translate(172.992858, 269.091692)"><g/></g></g><g fill="#ffffff" fill-opacity="1"><g transform="translate(177.759498, 269.091692)"><g><path d="M 6.390625 0.203125 C 5.390625 0.203125 4.5 0.0820312 3.71875 -0.15625 C 2.945312 -0.40625 2.300781 -0.726562 1.78125 -1.125 C 1.257812 -1.53125 0.859375 -1.972656 0.578125 -2.453125 L 2.15625 -4.375 L 2.40625 -4.375 C 2.832031 -3.726562 3.378906 -3.210938 4.046875 -2.828125 C 4.722656 -2.453125 5.503906 -2.265625 6.390625 -2.265625 C 7.160156 -2.265625 7.738281 -2.425781 8.125 -2.75 C 8.507812 -3.070312 8.703125 -3.515625 8.703125 -4.078125 C 8.703125 -4.421875 8.640625 -4.707031 8.515625 -4.9375 C 8.390625 -5.164062 8.179688 -5.363281 7.890625 -5.53125 C 7.609375 -5.695312 7.21875 -5.835938 6.71875 -5.953125 L 4.859375 -6.375 C 3.566406 -6.675781 2.601562 -7.171875 1.96875 -7.859375 C 1.332031 -8.546875 1.015625 -9.4375 1.015625 -10.53125 C 1.015625 -11.351562 1.21875 -12.070312 1.625 -12.6875 C 2.03125 -13.300781 2.625 -13.78125 3.40625 -14.125 C 4.1875 -14.46875 5.117188 -14.640625 6.203125 -14.640625 C 7.316406 -14.640625 8.269531 -14.492188 9.0625 -14.203125 C 9.851562 -13.910156 10.523438 -13.460938 11.078125 -12.859375 L 9.671875 -10.921875 L 9.421875 -10.921875 C 9.015625 -11.347656 8.546875 -11.664062 8.015625 -11.875 C 7.492188 -12.09375 6.890625 -12.203125 6.203125 -12.203125 C 5.421875 -12.203125 4.828125 -12.0625 4.421875 -11.78125 C 4.015625 -11.507812 3.8125 -11.128906 3.8125 -10.640625 C 3.8125 -10.191406 3.953125 -9.832031 4.234375 -9.5625 C 4.523438 -9.289062 5.019531 -9.078125 5.71875 -8.921875 L 7.625 -8.53125 C 9.019531 -8.226562 10.035156 -7.722656 10.671875 -7.015625 C 11.304688 -6.316406 11.625 -5.394531 11.625 -4.25 C 11.625 -3.351562 11.425781 -2.566406 11.03125 -1.890625 C 10.644531 -1.222656 10.0625 -0.707031 9.28125 -0.34375 C 8.5 0.0195312 7.535156 0.203125 6.390625 0.203125 Z M 6.390625 0.203125 "/></g></g></g><g fill="#ffffff" fill-opacity="1"><g transform="translate(190.154723, 269.091692)"><g><path d="M 11.578125 -14.4375 L 11.578125 -12.03125 L 7.40625 -12.03125 L 7.40625 0 L 4.5625 0 L 4.5625 -12.03125 L 0.390625 -12.03125 L 0.390625 -14.4375 Z M 11.578125 -14.4375 "/></g></g></g><g fill="#ffffff" fill-opacity="1"><g transform="translate(202.11572, 269.091692)"><g><path d="M 7.65625 0.203125 C 5.664062 0.203125 4.1875 -0.265625 3.21875 -1.203125 C 2.257812 -2.148438 1.78125 -3.550781 1.78125 -5.40625 L 1.78125 -14.4375 L 4.578125 -14.4375 L 4.578125 -5.4375 C 4.578125 -4.375 4.828125 -3.578125 5.328125 -3.046875 C 5.835938 -2.523438 6.613281 -2.265625 7.65625 -2.265625 C 9.695312 -2.265625 10.71875 -3.320312 10.71875 -5.4375 L 10.71875 -14.4375 L 13.515625 -14.4375 L 13.515625 -5.40625 C 13.515625 -3.550781 13.03125 -2.148438 12.0625 -1.203125 C 11.101562 -0.265625 9.632812 0.203125 7.65625 0.203125 Z M 7.65625 0.203125 "/></g></g></g><g fill="#ffffff" fill-opacity="1"><g transform="translate(217.412375, 269.091692)"><g><path d="M 7.0625 -14.4375 C 9.40625 -14.4375 11.191406 -13.828125 12.421875 -12.609375 C 13.660156 -11.398438 14.28125 -9.601562 14.28125 -7.21875 C 14.28125 -4.832031 13.660156 -3.03125 12.421875 -1.8125 C 11.191406 -0.601562 9.40625 0 7.0625 0 L 1.875 0 L 1.875 -14.4375 Z M 6.90625 -2.40625 C 8.382812 -2.40625 9.492188 -2.78125 10.234375 -3.53125 C 10.972656 -4.289062 11.34375 -5.519531 11.34375 -7.21875 C 11.34375 -8.90625 10.972656 -10.128906 10.234375 -10.890625 C 9.492188 -11.648438 8.382812 -12.03125 6.90625 -12.03125 L 4.734375 -12.03125 L 4.734375 -2.40625 Z M 6.90625 -2.40625 "/></g></g></g><g fill="#ffffff" fill-opacity="1"><g transform="translate(232.837329, 269.091692)"><g><path d="M 4.734375 -6.34375 L 4.734375 -2.390625 L 11.625 -2.390625 L 11.625 0 L 1.875 0 L 1.875 -14.4375 L 11.46875 -14.4375 L 11.46875 -12.046875 L 4.734375 -12.046875 L 4.734375 -8.671875 L 10.609375 -8.671875 L 10.609375 -6.34375 Z M 4.734375 -6.34375 "/></g></g></g><g fill="#ffffff" fill-opacity="1"><g transform="translate(245.242427, 269.091692)"><g><path d="M 4.640625 0 L 1.875 0 L 1.875 -14.4375 L 5.140625 -14.4375 L 10.9375 -5.140625 L 11.203125 -5.171875 L 11.203125 -14.4375 L 13.9375 -14.4375 L 13.9375 0 L 11.015625 0 L 4.890625 -9.9375 L 4.640625 -9.890625 Z M 4.640625 0 "/></g></g></g><g fill="#ffffff" fill-opacity="1"><g transform="translate(261.062134, 269.091692)"><g><path d="M 11.578125 -14.4375 L 11.578125 -12.03125 L 7.40625 -12.03125 L 7.40625 0 L 4.5625 0 L 4.5625 -12.03125 L 0.390625 -12.03125 L 0.390625 -14.4375 Z M 11.578125 -14.4375 "/></g></g></g><g fill="#ffffff" fill-opacity="1"><g transform="translate(273.023131, 269.091692)"><g/></g></g><g fill="#ffffff" fill-opacity="1"><g transform="translate(277.789771, 269.091692)"><g><path d="M 1.875 0 L 1.875 -14.4375 L 8.03125 -14.4375 C 8.925781 -14.4375 9.679688 -14.296875 10.296875 -14.015625 C 10.910156 -13.734375 11.375 -13.332031 11.6875 -12.8125 C 12 -12.300781 12.15625 -11.691406 12.15625 -10.984375 C 12.15625 -10.347656 12 -9.785156 11.6875 -9.296875 C 11.382812 -8.804688 10.941406 -8.414062 10.359375 -8.125 L 10.359375 -7.921875 C 11.273438 -7.679688 11.976562 -7.25 12.46875 -6.625 C 12.957031 -6 13.203125 -5.234375 13.203125 -4.328125 C 13.203125 -2.941406 12.785156 -1.875 11.953125 -1.125 C 11.128906 -0.375 9.894531 0 8.25 0 Z M 7.4375 -8.671875 C 8.769531 -8.671875 9.4375 -9.269531 9.4375 -10.46875 C 9.4375 -11.082031 9.269531 -11.539062 8.9375 -11.84375 C 8.613281 -12.144531 8.113281 -12.296875 7.4375 -12.296875 L 4.734375 -12.296875 L 4.734375 -8.671875 Z M 7.96875 -2.265625 C 9.539062 -2.265625 10.328125 -2.976562 10.328125 -4.40625 C 10.328125 -5.84375 9.539062 -6.5625 7.96875 -6.5625 L 4.734375 -6.5625 L 4.734375 -2.265625 Z M 7.96875 -2.265625 "/></g></g></g><g fill="#ffffff" fill-opacity="1"><g transform="translate(291.902168, 269.091692)"><g><path d="M 1.875 0 L 1.875 -14.4375 L 7.671875 -14.4375 C 9.160156 -14.4375 10.285156 -14.09375 11.046875 -13.40625 C 11.804688 -12.71875 12.1875 -11.765625 12.1875 -10.546875 C 12.1875 -9.671875 11.960938 -8.953125 11.515625 -8.390625 C 11.078125 -7.835938 10.414062 -7.414062 9.53125 -7.125 L 9.53125 -6.90625 C 9.988281 -6.707031 10.359375 -6.414062 10.640625 -6.03125 C 10.921875 -5.644531 11.1875 -5.066406 11.4375 -4.296875 L 12.875 0 L 9.9375 0 L 8.53125 -4.3125 C 8.382812 -4.75 8.21875 -5.085938 8.03125 -5.328125 C 7.851562 -5.566406 7.625 -5.738281 7.34375 -5.84375 C 7.070312 -5.957031 6.710938 -6.015625 6.265625 -6.015625 L 4.734375 -6.015625 L 4.734375 0 Z M 7.328125 -8.265625 C 8.710938 -8.265625 9.40625 -8.910156 9.40625 -10.203125 C 9.40625 -11.515625 8.710938 -12.171875 7.328125 -12.171875 L 4.734375 -12.171875 L 4.734375 -8.265625 Z M 7.328125 -8.265625 "/></g></g></g><g fill="#ffffff" fill-opacity="1"><g transform="translate(305.392836, 269.091692)"><g><path d="M 13.84375 0 L 10.84375 0 L 9.765625 -3.328125 L 4.234375 -3.328125 L 3.15625 0 L 0.21875 0 L 5.203125 -14.4375 L 8.859375 -14.4375 Z M 6.859375 -11.421875 L 5 -5.71875 L 8.96875 -5.71875 L 7.109375 -11.421875 Z M 6.859375 -11.421875 "/></g></g></g><g fill="#ffffff" fill-opacity="1"><g transform="translate(319.455894, 269.091692)"><g><path d="M 4.640625 0 L 1.875 0 L 1.875 -14.4375 L 5.140625 -14.4375 L 10.9375 -5.140625 L 11.203125 -5.171875 L 11.203125 -14.4375 L 13.9375 -14.4375 L 13.9375 0 L 11.015625 0 L 4.890625 -9.9375 L 4.640625 -9.890625 Z M 4.640625 0 "/></g></g></g><g fill="#ffffff" fill-opacity="1"><g transform="translate(335.275601, 269.091692)"><g><path d="M 7.890625 0.203125 C 6.554688 0.203125 5.382812 -0.0703125 4.375 -0.625 C 3.363281 -1.175781 2.570312 -2.003906 2 -3.109375 C 1.425781 -4.222656 1.140625 -5.59375 1.140625 -7.21875 C 1.140625 -8.84375 1.425781 -10.207031 2 -11.3125 C 2.570312 -12.425781 3.363281 -13.257812 4.375 -13.8125 C 5.382812 -14.363281 6.554688 -14.640625 7.890625 -14.640625 C 9.273438 -14.640625 10.453125 -14.367188 11.421875 -13.828125 C 12.398438 -13.285156 13.09375 -12.457031 13.5 -11.34375 L 11.421875 -10.0625 L 11.171875 -10.078125 C 10.867188 -10.828125 10.453125 -11.363281 9.921875 -11.6875 C 9.390625 -12.019531 8.710938 -12.1875 7.890625 -12.1875 C 6.691406 -12.1875 5.753906 -11.785156 5.078125 -10.984375 C 4.410156 -10.191406 4.078125 -8.9375 4.078125 -7.21875 C 4.078125 -5.5 4.410156 -4.242188 5.078125 -3.453125 C 5.753906 -2.660156 6.691406 -2.265625 7.890625 -2.265625 C 9.765625 -2.265625 10.910156 -3.175781 11.328125 -5 L 11.578125 -5 L 13.6875 -3.90625 C 13.289062 -2.53125 12.613281 -1.5 11.65625 -0.8125 C 10.707031 -0.132812 9.453125 0.203125 7.890625 0.203125 Z M 7.890625 0.203125 "/></g></g></g><g fill="#ffffff" fill-opacity="1"><g transform="translate(349.427484, 269.091692)"><g><path d="M 11.203125 -9 L 11.203125 -14.4375 L 14.03125 -14.4375 L 14.03125 0 L 11.203125 0 L 11.203125 -6.578125 L 4.734375 -6.578125 L 4.734375 0 L 1.875 0 L 1.875 -14.4375 L 4.734375 -14.4375 L 4.734375 -9 Z M 11.203125 -9 "/></g></g></g></svg>