<?xml version="1.0" encoding="utf-8"?>
<!-- Generator: Adobe Illustrator 23.0.5, SVG Export Plug-In . SVG Version: 6.00 Build 0)  -->
<svg version="1.1" id="Layer_1" xmlns="http://www.w3.org/2000/svg" xmlns:xlink="http://www.w3.org/1999/xlink" x="0px" y="0px"
	 viewBox="0 0 841.9 595.3" style="enable-background:new 0 0 841.9 595.3;" xml:space="preserve">
<style type="text/css">
	.st0{display:none;fill:#231F20;stroke:#FFFFFF;stroke-miterlimit:10;}
	.st1{display:none;stroke:#FFFFFF;stroke-miterlimit:10;}
	.st2{display:none;fill:#231F20;}
	.st3{display:none;fill:#636464;}
	.st4{display:none;fill:#A8A8A8;}
	.st5{display:none;}
	.st6{display:inline;}
	.st7{stroke:#FFFFFF;stroke-miterlimit:10;}
	.st8{fill:#636565;}
	.st9{fill:none;stroke:#000000;}
	.st10{fill:#0B0B0B;}
	.st11{fill:#636464;}
	.st12{display:inline;stroke:#FFFFFF;stroke-miterlimit:10;}
</style>
<path class="st0" d="M320.3,428.7c-85.7-15-96.6-132.4-45.7-165.3c22.3-10.9,41.6,11.4,18.8,33.4c-22.6,21.7-14.3,91.8,26.9,103.1
	c4.3-0.1,6.9,0,9-5.3s-15.1-9.4-11.8-16.1c3.3-6.8,11.8-5.6,11.8-5.6c11.3,22.4,28.1,37,52.7,40.5
	C366.2,425.4,345.5,430.4,320.3,428.7z"/>
<path class="st0" d="M329.3,372.9c-14.8-31.6-21.4-61.8-14.8-93.3c6.1-26.5,47.4-13.6,36.2,15.5c-8.7,19.2-11.2,33,3.3,37.7
	c18,7,22.7,18.2,11.7,34.5c-6.8,15.2,9.1,26.9,24.8,22.2c18.8-5.2,24.1,9.8,7.6,19.2C376.7,421.9,344.5,402.6,329.3,372.9z"/>
<path class="st1" d="M522.3,291.7c1.2-31.3-33.5-37.4-32.5,0.3c0,0-1.5,52.1,4,101.2c2.7,26.7,27.4,28.9,28,1.4
	C521.9,354.1,522.8,316.9,522.3,291.7z"/>
<path class="st1" d="M572.2,282.9c-27.3-53.4-75.1,4.8-33.9,11.9c15.7,2.9,29.8,8.2,16.1,35.8c-21.7,39.8-30,73.5-3.3,91.4
	c0,0,7.5,5.1,27.6,6.4c-23.3-12.2-28.7-43.2-8.6-83.8C580.2,323.1,581.9,303.9,572.2,282.9z"/>
<path class="st0" d="M317.6,428.2c-2-0.6-53.4-6.9-71.5-76.2c-10.7-41,16-76.7,15.6-77c-14.8-13.2-70.9-23.6-93.9-30.9
	c0,0-122.5-41.9-149.5-59.3c0,0-10.1,43.9,109.4,92.1L55,244.6c0,0,1.9,70.9,121.5,75.7l-86.3-12.5c0,0,9.6,57.9,126.8,53l-83.9-5.8
	c0,0,11.6,46.3,106.1,40l-67,1c0,0,6.3,13.9,42.4,22.1C254.2,426.9,323.7,430,317.6,428.2z"/>
<path class="st1" d="M578.7,428.5c0,0-27.5-11.9-21.8-52.1c3.2-22.7,21.8-48.9,21.8-69.5c0-15.8-10.3-27.5-9.1-30.2
	c8.3-18.1,73.7-24.8,96.8-32.1c0,0,122.5-42.3,149.5-59.8c0,0,10.1,44.2-109.4,92.9l72.8-32.6c0,0-1.9,71.5-121.5,76.3l86.3-12.6
	c0,0-9.6,58.3-126.8,53.5l83.9-5.8c0,0-11.6,46.7-106.1,40.4l67,1C662,397.7,656.5,433.6,578.7,428.5z"/>
<path class="st2" d="M466.7,277.6h-74.5c-0.6,0-1.1-0.5-1.1-1.1v-4.2c0-0.6,0.5-1.1,1.1-1.1h74.5c0.6,0,1.1,0.5,1.1,1.1v4.2
	C467.9,277.1,467.4,277.6,466.7,277.6z"/>
<path class="st2" d="M453.6,300h-68.3c-0.6,0-1.1-0.5-1.1-1.1v-4.2c0-0.6,0.5-1.1,1.1-1.1h68.3c0.6,0,1.1,0.5,1.1,1.1v4.2
	C454.7,299.5,454.2,300,453.6,300z"/>
<path class="st3" d="M453.5,304h-64.7c-0.7,0-1.2-0.5-1.2-1.2v-5.7c0-0.7,0.5-1.2,1.2-1.2h64.7c0.7,0,1.2,0.5,1.2,1.2v5.7
	C454.7,303.5,454.2,304,453.5,304z"/>
<path class="st2" d="M476.9,326.7h-88.1c-0.6,0-1.1-0.5-1.1-1.1v-4.2c0-0.6,0.5-1.1,1.1-1.1h88.1c0.6,0,1.1,0.5,1.1,1.1v4.2
	C478,326.2,477.5,326.7,476.9,326.7z"/>
<path class="st3" d="M476.7,331.4h-86.3c-0.7,0-1.3-0.6-1.3-1.3v-5.3c0-0.7,0.6-1.3,1.3-1.3h86.3c0.7,0,1.3,0.6,1.3,1.3v5.3
	C478,330.8,477.5,331.4,476.7,331.4z"/>
<path class="st4" d="M478.9,346.1h-77.8c-0.7,0-1.3-0.6-1.3-1.3V343c0-0.7,0.6-1.3,1.3-1.3h77.8c0.7,0,1.3,0.6,1.3,1.3v1.9
	C480.1,345.6,479.6,346.1,478.9,346.1z"/>
<path class="st4" d="M498,313H384c-0.7,0-1.3-0.6-1.3-1.3v-1.9c0-0.7,0.6-1.3,1.3-1.3h114c0.7,0,1.3,0.6,1.3,1.3v1.9
	C499.3,312.4,498.7,313,498,313z"/>
<path class="st4" d="M484.2,266.4h-83.3c-0.7,0-1.3-0.6-1.3-1.3v-1.9c0-0.7,0.6-1.3,1.3-1.3h83.3c0.7,0,1.3,0.6,1.3,1.3v1.9
	C485.5,265.8,484.9,266.4,484.2,266.4z"/>
<path class="st4" d="M465.4,360.9H417c-0.7,0-1.3-0.6-1.3-1.3v-1.9c0-0.7,0.6-1.3,1.3-1.3h48.4c0.7,0,1.3,0.6,1.3,1.3v1.9
	C466.7,360.3,466.1,360.9,465.4,360.9z"/>
<path class="st4" d="M485.9,438.5h-93.2c-0.7,0-1.3-0.6-1.3-1.3v-1.9c0-0.7,0.6-1.3,1.3-1.3h93.2c0.7,0,1.3,0.6,1.3,1.3v1.9
	C487.2,437.9,486.6,438.5,485.9,438.5z"/>
<path class="st4" d="M478.6,421.1h-66.8c-0.7,0-1.3-0.6-1.3-1.3V418c0-0.7,0.6-1.3,1.3-1.3h66.8c0.7,0,1.3,0.6,1.3,1.3v1.9
	C479.9,420.6,479.3,421.1,478.6,421.1z"/>
<path class="st4" d="M494,451.5H389.2c-0.7,0-1.3-0.6-1.3-1.3v-1.9c0-0.7,0.6-1.3,1.3-1.3h104.8c0.7,0,1.3,0.6,1.3,1.3v1.9
	C495.3,450.9,494.8,451.5,494,451.5z"/>
<path class="st4" d="M493.5,463.6H384.3c-0.7,0-1.3-0.6-1.3-1.3v-1.9c0-0.7,0.6-1.3,1.3-1.3h109.2c0.7,0,1.3,0.6,1.3,1.3v1.9
	C494.8,463,494.3,463.6,493.5,463.6z"/>
<path class="st4" d="M496.2,288.8H389.5c-0.7,0-1.3-0.6-1.3-1.3v-1.9c0-0.7,0.6-1.3,1.3-1.3h106.8c0.7,0,1.3,0.6,1.3,1.3v1.9
	C497.5,288.2,496.9,288.8,496.2,288.8z"/>
<path class="st3" d="M466.7,279.9h-74.5c-0.6,0-1.1-0.5-1.1-1.1v-4.2c0-0.6,0.5-1.1,1.1-1.1h74.5c0.6,0,1.1,0.5,1.1,1.1v4.2
	C467.9,279.4,467.4,279.9,466.7,279.9z"/>
<image style="display:none;overflow:visible;enable-background:new    ;" width="227" height="165" xlink:href="93177E8D.png"  transform="matrix(-0.2871 0 0 0.2871 469.7369 418.8743)">
</image>
<g class="st5">
	<g class="st6">
		<path d="M403.8,530.7h-16.7c-1.6,0-3.2-0.6-4.5-1.6l-68-56c-4.6-3.8-11.5-0.5-11.5,5.5v48c0,2.5-1.4,4.9-3.5,6.1l-20.6,11.8
			c-4.7,2.7-10.6-0.7-10.6-6.1V422.7c0-3.9,3.2-7.1,7.1-7.1h15.2c1.6,0,3.2,0.6,4.5,1.6l69.5,57.5c4.6,3.8,11.6,0.5,11.6-5.4v-46.6
			c0-3.9,3.2-7.1,7.1-7.1h20.6c3.9,0,7.1,3.2,7.1,7.1v100.9C410.8,527.5,407.7,530.7,403.8,530.7z"/>
	</g>
	<g class="st6">
		<path class="st7" d="M520.7,435.1l-6.1,6.2c-1.8,1.8-4.3,2.9-6.8,2.9H445c-5.3,0-9.6,4.3-9.6,9.6v0.8c0,5.3,4.3,9.6,9.6,9.6h52.1
			c8.6,0,12.9,10.4,6.8,16.4l-3.9,3.9c-1.8,1.8-4.3,2.8-6.8,2.8H445c-5.3,0-9.6,4.3-9.6,9.6v0.4c0,5.3,4.3,9.6,9.6,9.6h64.6
			c8.6,0,12.9,10.4,6.8,16.4l-6.2,6.2c-1.8,1.8-4.3,2.8-6.8,2.8h-92.8c-5.3,0-9.6-4.3-9.6-9.6v-94.5c0-5.3,4.3-9.6,9.6-9.6h103.1
			C522.4,418.7,526.7,429,520.7,435.1z"/>
	</g>
</g>
<g>
	<path d="M409.4,130.6c-1.6,0.1-3.2,0-4.8-0.3c-1.6-0.3-3.1-0.6-4.7-1.1c-3.1-1-6-2.5-8.7-4.2c-2.8-1.7-5.3-3.7-7.7-5.8
		s-4.7-4.4-6.9-6.8c-4.3-4.8-8.1-10-11.5-15.5c-3.4-5.5-6.4-11.2-8.9-17.2c-1.2-3-2.3-6.1-3.2-9.4c-0.4-1.6-0.7-3.3-0.8-5.1
		c-0.1-0.9-0.1-1.9,0-2.9c0.1-1,0.4-2.2,1.3-3.4c0.2-0.3,0.5-0.6,0.8-0.9c0.3-0.3,0.7-0.5,1.1-0.7c0.8-0.3,1.6-0.5,2.3-0.5
		c0.3,0,0.7,0,1,0.1c0.4,0.1,0.7,0.2,1,0.3c0.3,0.1,0.5,0.2,0.8,0.3s0.5,0.2,0.7,0.4c1.7,1,3,2.1,4.3,3.2c2.5,2.2,4.7,4.5,7,6.8
		c4.5,4.6,8.7,9.2,13.2,13.7c4.5,4.5,9,8.8,13.8,12.8c4.7,4.1,9.6,7.9,14.8,11.3c5.2,3.3,10.7,6.2,16.4,8.2c1.4,0.5,2.9,0.9,4.3,1.4
		c1.5,0.3,2.9,0.7,4.4,0.9c3,0.5,6,0.8,8.9,0.6c3-0.1,6-0.6,8.9-1.3c2.9-0.8,5.7-1.8,8.5-3.1c5.5-2.7,10.4-6.4,15-10.6
		c4.5-4.2,8.6-9,12.4-14.1c3.8-5,7.2-10.4,10.4-15.8l2.4-4.1c0.8-1.4,1.5-2.8,2.3-4.2c1.6-2.8,2.9-5.6,4.4-8.5
		c-2.3,5.9-4.8,11.8-7.6,17.5c-2.8,5.7-6,11.3-9.5,16.7c-3.5,5.4-7.5,10.5-12,15.2c-4.5,4.7-9.7,8.8-15.6,12c-2.9,1.6-6,2.8-9.3,3.8
		c-3.2,0.9-6.6,1.5-9.9,1.7c-3.4,0.2-6.7,0-10-0.4c-1.7-0.2-3.3-0.6-4.9-0.9c-1.6-0.4-3.2-0.8-4.8-1.4c-6.3-2.1-12.2-5.2-17.7-8.6
		c-5.5-3.5-10.7-7.4-15.6-11.7c-9.8-8.4-18.5-17.9-27.1-27.2c-2.1-2.3-4.3-4.6-6.5-6.7c-1.1-1-2.3-2-3.3-2.6
		c-0.1-0.1-0.2-0.1-0.3-0.2c-0.1,0-0.2-0.1-0.3-0.1c0,0-0.1,0-0.1,0c0,0-0.1,0-0.2,0c-0.1,0,0,0-0.1,0c0,0,0,0,0,0
		c0.1,0,0.1-0.1,0.1-0.1c-0.1,0-0.3,0.5-0.3,1c-0.1,0.6-0.1,1.2-0.1,1.9c0,1.4,0.3,2.8,0.6,4.3c0.6,2.9,1.5,5.9,2.6,8.8
		c2.1,5.8,4.9,11.5,7.9,16.9c3.1,5.5,6.5,10.7,10.4,15.6c3.9,4.9,8.3,9.5,13.3,13.2c2.5,1.9,5.2,3.5,8.1,4.7
		c1.4,0.6,2.9,1.1,4.5,1.5C406.2,130.2,407.8,130.5,409.4,130.6z"/>
</g>
<ellipse class="st7" cx="445.9" cy="92.8" rx="15.4" ry="13.9"/>
<ellipse transform="matrix(0.9999 -1.459990e-02 1.459990e-02 0.9999 -1.3243 6.5181)" class="st8" cx="445.8" cy="94" rx="14.3" ry="11.9"/>
<g>
	<rect x="409.1" y="138.8" width="53.9" height="4.2"/>
	<circle class="st9" cx="469.5" cy="140.9" r="6.6"/>
	<circle cx="469.5" cy="140.9" r="3.6"/>
</g>
<g>
	<rect x="417.1" y="154" transform="matrix(-1 -3.310075e-11 3.310075e-11 -1 911.2839 312.2046)" width="77.1" height="4.2"/>
	<circle class="st9" cx="410.5" cy="156.1" r="6.6"/>
	<circle cx="410.5" cy="156.1" r="3.6"/>
</g>
<g>
	<rect x="409.1" y="189.1" transform="matrix(-1 -2.805457e-11 2.805457e-11 -1 909.1602 382.5038)" width="91" height="4.2"/>
	<circle class="st9" cx="402.5" cy="191.3" r="6.6"/>
	<circle cx="402.5" cy="191.3" r="3.6"/>
</g>
<g>
	<rect x="421.9" y="323.5" transform="matrix(-1 -3.327972e-11 3.327972e-11 -1 920.5494 651.3107)" width="76.7" height="4.2"/>
	<circle class="st9" cx="415.4" cy="325.7" r="6.6"/>
	<circle cx="415.4" cy="325.7" r="3.6"/>
</g>
<g>
	<rect x="435.9" y="226" transform="matrix(-1 -4.488999e-11 4.488999e-11 -1 928.6566 456.1634)" width="56.9" height="4.2"/>
	<circle class="st9" cx="429.4" cy="228.1" r="6.6"/>
	<circle cx="429.4" cy="228.1" r="3.6"/>
</g>
<g>
	<rect x="392.2" y="172.2" width="89.5" height="4.2"/>
	<circle class="st9" cx="488.2" cy="174.3" r="6.6"/>
	<circle cx="488.2" cy="174.3" r="3.6"/>
</g>
<rect x="400.8" y="243.5" width="76.9" height="4.2"/>
<g>
	<rect x="397.3" y="208" width="76.9" height="4.2"/>
	<circle class="st9" cx="480.8" cy="210.1" r="6.6"/>
	<circle cx="480.8" cy="210.1" r="3.6"/>
</g>
<g>
	<rect x="399" y="305.8" width="56.9" height="4.2"/>
	<circle class="st9" cx="462.4" cy="307.9" r="6.6"/>
	<circle cx="462.4" cy="307.9" r="3.6"/>
</g>
<rect x="392.7" y="338.6" width="87" height="4.2"/>
<circle class="st9" cx="486.3" cy="340.8" r="6.6"/>
<circle cx="486.3" cy="340.8" r="3.6"/>
<path class="st10" d="M428.1,123.7c-56.2,50.8-44.4,85.6,18,132.8c44.5,32,65.5,47.8,60,95.9h-5.7c-4.2-25-24.3-47.7-54.5-68.9
	c-27.8-19.6-59.3-42.7-60.6-68.7c-2.5-48.6,3.9-62,40.2-89.5L428.1,123.7z"/>
<path class="st11" d="M438.8,250.8c0,0-49.8-34.3-53.5-64.7c0,0-2.1-17.5,14.7-38.1c6.6-8,15.8-15.5,28.1-24.3c0,0,0,0,0,0
	C380.7,165.6,379,206.1,438.8,250.8z"/>
<path class="st8" d="M500,351.8h6.6c0,0,3.6-23-55.7-65.3C486.5,316.6,499.6,336.6,500,351.8z"/>
<path class="st10" d="M463.6,123.7c56.2,50.8,44.4,85.6-18,132.8c-44.5,32-65.5,47.8-60,95.9h5.7c4.2-25,24.3-47.7,54.5-68.9
	c27.8-19.6,59.3-42.7,60.6-68.7c2.5-48.6-3.9-62-40.2-89.5L463.6,123.7z"/>
<path class="st11" d="M453,250.8c0,0,49.8-34.3,53.5-64.7c0,0,2.1-17.5-14.7-38.1c-6.6-8-15.8-15.5-28.1-24.3c0,0,0,0,0,0
	C511.1,165.6,512.8,206.1,453,250.8z"/>
<path class="st8" d="M391.8,352.3h-6.6c0,0-3.6-23,55.7-65.3C405.3,317.1,392.1,337.1,391.8,352.3z"/>
<g class="st5">
	<path class="st12" d="M653.5,536l-19.6,11.1c-5,2.9-11.3-0.8-11.3-6.6V426.2c0-4.2,3.4-7.5,7.5-7.5h19.6c4.2,0,7.5,3.4,7.5,7.5
		v103.2C657.3,532.2,655.9,534.7,653.5,536z"/>
	<path class="st12" d="M774.7,468l18.1,24c2.6,3.5,2.6,8.2,0,11.6l-18.9,25.5c-1.8,2.5-4.7,4-7.8,4H661c-8.7,0-13-10.5-6.9-16.6
		l6.2-6.3c1.8-1.8,4.3-2.9,6.9-2.9h79c2.8,0,5.5-1.2,7.4-3.4l0,0c3.1-3.5,3.2-8.8,0.2-12.4l-0.3-0.4c-1.8-2.3-4.7-3.7-7.6-3.7h-78
		c-3.1,0-6-1.5-7.8-3.9l-18.1-24.3c-2.6-3.4-2.6-8.1,0-11.6l18.9-25.6c1.8-2.5,4.7-4,7.8-4h104.9c8.7,0,13,10.5,6.9,16.6l-6.3,6.3
		c-1.8,1.8-4.3,2.9-6.9,2.9h-78.8c-2.8,0-5.6,1.3-7.4,3.4l-0.2,0.3c-3,3.6-3.1,8.8-0.2,12.4l0.4,0.5c1.8,2.3,4.6,3.6,7.6,3.6h78.2
		C769.9,464.1,772.8,465.5,774.7,468z"/>
	<path class="st12" d="M300.7,430.1l-11.5,11.6c-1.3,1.3-3.1,2.1-5,2.1H217c-3.9,0-7.1,3.2-7.1,7.1v6.1c0,3.9,3.2,7.1,7.1,7.1h61.8
		c6.3,0,9.5,7.6,5,12.1l-9.2,9.2c-1.3,1.3-3.1,2.1-5,2.1h-52.6c-3.9,0-7.1,3.2-7.1,7.1v5.7c0,3.9,3.2,7.1,7.1,7.1h74.5
		c6.3,0,9.5,7.6,5,12.1L285,531c-1.3,1.3-3.1,2.1-5,2.1h-97.6c-3.9,0-7.1-3.2-7.1-7.1V425.1c0-3.9,3.2-7.1,7.1-7.1h113.4
		C302,418.1,305.2,425.6,300.7,430.1z"/>
	<path class="st12" d="M70.9,419.4h93.2c1.7,0,3.4,0.7,4.6,1.9l22.4,22.5c1.2,1.2,1.9,2.8,1.9,4.5V506c0,1.7-0.7,3.4-1.9,4.6
		l-22.3,22c-1.2,1.2-2.8,1.8-4.5,1.8H88c-1.7,0-3.3-0.7-4.6-1.9l-22-22c-1.2-1.2-1.9-2.8-1.9-4.5v-34.2c0-3.5,2.9-6.4,6.4-6.4h59.9
		c5.7,0,8.6,6.9,4.5,11l-10.5,10.5c-1.2,1.2-2.8,1.9-4.6,1.9h-14.7c-3.6,0-6.4,2.9-6.4,6.4v7c0,3.5,2.9,6.4,6.4,6.4h51.1
		c3.6,0,6.4-2.9,6.4-6.4v-50.7c0-3.5-2.9-6.4-6.4-6.4H83.7c-1.7,0-3.4-0.7-4.6-1.9l-12.8-12.9C62.3,426.3,65.2,419.4,70.9,419.4z"/>
</g>
<rect x="95.6" y="369.4" width="634.2" height="1.5"/>
<g class="st5">
	<path class="st12" d="M620,468.6l18.1,24c2.6,3.5,2.6,8.2,0,11.6l-18.9,25.5c-1.8,2.5-4.7,4-7.8,4h-105c-8.7,0-13-10.5-6.9-16.6
		l6.2-6.3c1.8-1.8,4.3-2.9,6.9-2.9h79c2.8,0,5.5-1.2,7.4-3.4l0,0c3.1-3.5,3.2-8.8,0.2-12.4l-0.3-0.4c-1.8-2.3-4.7-3.7-7.6-3.7h-78
		c-3.1,0-6-1.5-7.8-3.9l-18.1-24.3c-2.6-3.4-2.6-8.1,0-11.6l18.9-25.6c1.8-2.5,4.7-4,7.8-4h104.9c8.7,0,13,10.5,6.9,16.6l-6.3,6.3
		c-1.8,1.8-4.3,2.9-6.9,2.9h-78.8c-2.8,0-5.6,1.3-7.4,3.4l-0.2,0.3c-3,3.6-3.1,8.8-0.2,12.4l0.4,0.5c1.8,2.3,4.6,3.6,7.6,3.6h78.2
		C615.3,464.7,618.2,466.2,620,468.6z"/>
</g>
<g>
	<path d="M167.4,408.1l-9.1,9.1c-1.1,1.1-2.5,1.6-4,1.6h-53.1c-3.1,0-5.6,2.5-5.6,5.6v39c0,3.1,2.5,5.6,5.6,5.6h39.4
		c3.1,0,5.6-2.5,5.6-5.6V459c0-3.1-2.5-5.6-5.6-5.6h-10.9c-1.5,0-2.9-0.6-4-1.6l-7.3-7.3c-3.5-3.5-1-9.5,4-9.5H168
		c3.1,0,5.6,2.5,5.6,5.6v26.3c0,1.5-0.6,2.9-1.6,4l-17.1,17.1c-1.1,1-2.5,1.6-4,1.6H91.1c-1.5,0-2.9-0.6-3.9-1.6l-17.3-17.1
		c-1.1-1-1.7-2.5-1.7-4v-45.2c0-1.5,0.6-2.9,1.6-4l17.4-17.5c1.1-1,2.5-1.6,4-1.6h72.2C168.4,398.5,170.9,404.5,167.4,408.1z"/>
	<path d="M278.1,408.1l-9.1,9.1c-1,1.1-2.5,1.6-4,1.6h-53.1c-3.1,0-5.6,2.5-5.6,5.6v4.8c0,3.1,2.5,5.6,5.6,5.6h48.8c5,0,7.5,6,4,9.5
		l-7.3,7.3c-1,1-2.5,1.6-4,1.6h-41.6c-3.1,0-5.6,2.5-5.6,5.6v4.5c0,3.1,2.5,5.6,5.6,5.6h58.9c5,0,7.5,6,4,9.5l-9.1,9.1
		c-1,1-2.5,1.6-4,1.6h-77.1c-3.1,0-5.6-2.5-5.6-5.6v-79.7c0-3.1,2.5-5.6,5.6-5.6h89.6C279.1,398.5,281.6,404.5,278.1,408.1z"/>
	<path d="M391.9,489.4h-13.2c-1.3,0-2.5-0.5-3.6-1.3L321.4,444c-3.6-3-9.1-0.4-9.1,4.3v35.5c0,3.1-2.5,5.6-5.6,5.6l-16.2-0.1
		c-3.1,0-5.6-2.5-5.6-5.6v-79.6c0-3.1,2.5-5.6,5.6-5.6h11.6c1.3,0,2.5,0.5,3.6,1.3l55.3,45.5c3.6,3,9.1,0.4,9.1-4.3v-39.1
		c0-2,1.1-3.8,2.8-4.8l16.2-9.4c3.7-2.2,8.4,0.5,8.4,4.8v91.3C397.5,486.9,395,489.4,391.9,489.4z"/>
	<path d="M505.7,408.1l-9.1,9.1c-1,1.1-2.5,1.6-4,1.6h-53.1c-3.1,0-5.6,2.5-5.6,5.6v4.8c0,3.1,2.5,5.6,5.6,5.6h48.8c5,0,7.5,6,4,9.5
		l-7.3,7.3c-1,1-2.5,1.6-4,1.6h-41.5c-3.1,0-5.6,2.5-5.6,5.6v4.5c0,3.1,2.5,5.6,5.6,5.6h58.9c5,0,7.5,6,4,9.5l-9.1,9.1
		c-1,1-2.5,1.6-4,1.6h-77.1c-3.1,0-5.6-2.5-5.6-5.6v-79.7c0-3.1,2.5-5.6,5.6-5.6h89.6C506.7,398.5,509.2,404.5,505.7,408.1z"/>
	<path d="M630.4,464.9l-16.5,22.3c-1.1,1.4-2.7,2.3-4.5,2.3h-89.1c-5,0-7.5-6-4-9.5l9.1-9.1c1-1.1,2.5-1.6,4-1.6h64.3
		c1.6,0,3.2-0.7,4.2-1.9l1.8-2c1.8-2,1.8-5,0.1-7.1l-2-2.5c-1.1-1.3-2.7-2.1-4.4-2.1h-63.8c-1.8,0-3.4-0.8-4.5-2.3l-15.9-21.3
		c-1.5-2-1.5-4.7,0-6.7l16.5-22.4c1-1.4,2.7-2.3,4.5-2.3h89.1c5,0,7.5,6,4,9.5l-9.2,9.1c-1,1-2.5,1.6-4,1.6H546
		c-1.6,0-3.2,0.7-4.3,2l-2,2.3c-1.7,2-1.8,5-0.1,7.1l2,2.5c1.1,1.3,2.7,2.1,4.4,2.1H610c1.8,0,3.4,0.8,4.5,2.2l15.8,21.1
		C631.8,460.2,631.8,462.9,630.4,464.9z"/>
	<path d="M659.2,489.4l-16.2-0.1c-3.1,0-5.6-2.5-5.6-5.6v-81.8c0-2,1.1-3.9,2.8-4.8l16.2-9.4c3.7-2.2,8.4,0.5,8.4,4.8v91.3
		C664.8,486.9,662.3,489.4,659.2,489.4z"/>
	<path d="M791.7,464.9l-16.5,22.3c-1.1,1.4-2.7,2.3-4.5,2.3h-89.1c-5,0-7.5-6-4-9.5l9.1-9.1c1-1.1,2.5-1.6,4-1.6h64.3
		c1.6,0,3.2-0.7,4.2-1.9l1.8-2c1.8-2,1.8-5,0.1-7.1l-2-2.5c-1.1-1.3-2.7-2.1-4.4-2.1h-63.8c-1.8,0-3.4-0.8-4.5-2.3l-15.8-21.3
		c-1.5-2-1.5-4.7,0-6.7l16.5-22.4c1-1.4,2.7-2.3,4.5-2.3h89.1c5,0,7.5,6,4,9.5l-9.2,9.1c-1,1-2.5,1.6-4,1.6h-64.1
		c-1.6,0-3.2,0.7-4.3,2l-2,2.3c-1.7,2-1.8,5-0.1,7.1l2,2.5c1.1,1.3,2.7,2.1,4.4,2.1h63.9c1.8,0,3.4,0.8,4.5,2.2l15.8,21.1
		C793.1,460.2,793.1,462.9,791.7,464.9z"/>
</g>
</svg>
